# xmcd
#
# Track frame offsets: 
#        150
#        20224
#        40431
#        61487
#        79942
#        106320
#        124811
#        149431
#        168435
#        204019
#        220951
#        241584
#        261988
#        279519
#        298960
#        318070
#
# Disc length: 4496 seconds
#
# Revision: 0
# Processed by: cddbd v1.5.2PL0 Copyright (c) Steve Scherf et al.
# Submitted via: ExactAudioCopy v1.3
#
DISCID=f3118e10
DTITLE=Ruby Turner - Livin A Life of Love The Jive Anthology 1996-1991
DTITLE=Various Artist - Disc 1
DYEAR=2017
DGENRE=Soul
TTITLE0=If You’re Ready (Come Go with Me) (Duet with Jonathan Butler)
TTITLE1=I’m In Love
TTITLE2=Bye Baby
TTITLE3=I’d Rather Go Blind (1987 Single)
TTITLE4=In My Life (It’s Better to Be in Love) (Extended Version)
TTITLE5=Only Women Bleed
TTITLE6=Hurting Inside
TTITLE7=I’m Livin’ A Life Of Love
TTITLE8=Signed, Sealed, Delivered (I’m Yours) (Extended Mix)
TTITLE9=Nowhere To Run (Nowhere To Hide)
TTITLE10=Just My Imagination (Running Away With Me) (with The Temptati
TTITLE10=ons)
TTITLE11=Baby I Need Your Lovin’ (with The Four Tops)
TTITLE12=What Becomes Of The Brokenhearted (Featuring Jimmy Ruffin)
TTITLE13=The Tracks Of My Tears
TTITLE14=Still Waters Run Deep
TTITLE15=Step in My Shoes
EXTD=
EXTT0=
EXTT1=
EXTT2=
EXTT3=
EXTT4=
EXTT5=
EXTT6=
EXTT7=
EXTT8=
EXTT9=
EXTT10=
EXTT11=
EXTT12=
EXTT13=
EXTT14=
EXTT15=
PLAYORDER=
